# xmcd
#
# Track frame offsets: 
#        150
#        15259
#        34118
#        53467
#        70914
#        87243
#        103388
#        121150
#        133522
#        151188
#
# Disc length: 2172 seconds
#
# Revision: 0
# Processed by: cddbd v1.5.2PL0 Copyright (c) Steve Scherf et al.
# Submitted via: ExactAudioCopy v1.0b3
#
DISCID=73087a0a
DTITLE=The Rucksack Willies - Letter to Anne
DYEAR=2011
DGENRE=Country
TTITLE0=Beautiful Stranger
TTITLE1=Higher
TTITLE2=Wandering Man
TTITLE3=There Is Nothing
TTITLE4=Summers Over
TTITLE5=Letter to Anne
TTITLE6=Waiting For a Sign
TTITLE7=Midnight Ghost
TTITLE8=Hold Me
TTITLE9=Take Me Down
EXTD=
EXTT0=
EXTT1=
EXTT2=
EXTT3=
EXTT4=
EXTT5=
EXTT6=
EXTT7=
EXTT8=
EXTT9=
PLAYORDER=
